<?xml version="1.0" encoding="UTF-8" standalone="no"?>
<!-- Created with Inkscape (http://www.inkscape.org/) -->
<svg xmlns:dc="http://purl.org/dc/elements/1.1/" xmlns:cc="http://creativecommons.org/ns#" xmlns:rdf="http://www.w3.org/1999/02/22-rdf-syntax-ns#" xmlns:svg="http://www.w3.org/2000/svg" xmlns="http://www.w3.org/2000/svg" xmlns:sodipodi="http://sodipodi.sourceforge.net/DTD/sodipodi-0.dtd" xmlns:inkscape="http://www.inkscape.org/namespaces/inkscape" version="1.0" width="1424.058" height="503.40802" id="svg2" sodipodi:version="0.32" inkscape:version="0.48.4 r9939" sodipodi:docname="Time-dilation-002-mod.svg" inkscape:output_extension="org.inkscape.output.svg.inkscape">
  <metadata id="metadata75">
    <rdf:RDF>
      <cc:Work rdf:about="">
        <dc:format>image/svg+xml</dc:format>
        <dc:type rdf:resource="http://purl.org/dc/dcmitype/StillImage"/>
        <dc:title/>
      </cc:Work>
    </rdf:RDF>
  </metadata>
  <sodipodi:namedview inkscape:window-height="893" inkscape:window-width="1397" inkscape:pageshadow="2" inkscape:pageopacity="0.0" guidetolerance="10.0" gridtolerance="10.0" objecttolerance="10.0" borderopacity="1.0" bordercolor="#666666" pagecolor="#ffffff" id="base" inkscape:zoom="0.5598885" inkscape:cx="598.03786" inkscape:cy="439.08343" inkscape:window-x="401" inkscape:window-y="78" inkscape:current-layer="svg2" showgrid="false" showguides="true" inkscape:guide-bbox="true" inkscape:snap-bbox="false" inkscape:window-maximized="1" fit-margin-top="10" fit-margin-right="10" fit-margin-bottom="10" fit-margin-left="10"/>
  <defs id="defs4">
    <marker refX="0" refY="0" orient="auto" style="overflow:visible" id="marker11576">
      <path d="M 0,0 5,-5 -12.5,0 5,5 0,0 z" transform="scale(-0.4,-0.4)" style="fill-rule:evenodd;stroke:#000000;stroke-width:1pt;marker-start:none" id="path8608" inkscape:connector-curvature="0"/>
    </marker>
    <marker refX="0" refY="0" orient="auto" style="overflow:visible" id="marker8622">
      <path d="M 0,0 5,-5 -12.5,0 5,5 0,0 z" transform="scale(-0.8,-0.8)" style="fill-rule:evenodd;stroke:#000000;stroke-width:1pt;marker-start:none" id="path8614" inkscape:connector-curvature="0"/>
    </marker>
    <marker refX="0" refY="0" orient="auto" style="overflow:visible" id="Arrow2Mend">
      <path d="M 8.7185878,4.0337352 -2.2072895,0.01601326 8.7185884,-4.0017078 c -1.7454984,2.3720609 -1.7354408,5.6174519 -6e-7,8.035443 z" transform="matrix(-0.6,0,0,-0.6,3,0)" style="font-size:12px;fill-rule:evenodd;stroke-width:0.625;stroke-linejoin:round" id="path3352" inkscape:connector-curvature="0"/>
    </marker>
    <marker refX="0" refY="0" orient="auto" style="overflow:visible" id="Arrow1Mend">
      <path d="M 0,0 5,-5 -12.5,0 5,5 0,0 z" transform="scale(-0.45,-0.45)" style="font-size:12px;fill:#4040ff;fill-rule:evenodd;stroke-width:0.625;stroke-linejoin:round" id="path3370" inkscape:connector-curvature="0"/>
    </marker>
    <marker refX="0" refY="0" orient="auto" style="overflow:visible" id="Arrow2Mstart">
      <path d="M 8.7185878,4.0337352 -2.2072895,0.01601326 8.7185884,-4.0017078 c -1.7454984,2.3720609 -1.7354408,5.6174519 -6e-7,8.035443 z" transform="matrix(0.6,0,0,0.6,-3,0)" style="font-size:12px;fill:#4040ff;fill-rule:evenodd;stroke-width:0.625;stroke-linejoin:round" id="path3355" inkscape:connector-curvature="0"/>
    </marker>
    <marker refX="0" refY="0" orient="auto" style="overflow:visible" id="Club">
      <path d="m -1.5971367,-7.0977635 c -1.8892507,0 -3.426382,1.5371314 -3.426382,3.4263822 0,0.6566798 0.2383531,1.2269257 0.5594092,1.7481542 -0.038751,0.032111 -0.079672,0.058463 -0.1165436,0.093235 -0.6224234,-0.8549928 -1.5893983,-1.4451409 -2.7271199,-1.4451409 -1.8892515,-1e-7 -3.426382,1.5371314 -3.426382,3.42638214 0,1.88925076 1.5371305,3.42638216 3.426382,3.42638216 0.9934462,0 1.868619,-0.4420611 2.4940326,-1.1188187 -0.124687,0.3548915 -0.2097783,0.7214874 -0.2097783,1.1188187 0,1.8892506 1.5371313,3.4263822 3.426382,3.4263822 1.88925064,0 3.4263821,-1.5371316 3.4263821,-3.4263822 0,-0.7933959 -0.3155586,-1.4938285 -0.7691878,-2.0744763 C 2.4152718,1.7663868 3.7718375,2.2973711 4.7661444,3.8340272 4.0279463,3.0958289 3.5540908,1.7534117 3.5540908,-0.05852936 l -0.6293354,-0.04661745 0.5827179,-0.0233087 c 0,-1.81194109 0.4505466,-3.15435829 1.188745,-3.89255659 -0.9590906,1.4822308 -2.2571634,2.0263625 -3.5662345,2.3075635 0.4041964,-0.5619092 0.6992616,-1.213407 0.6992616,-1.9579327 0,-1.8892506 -1.53713146,-3.4263822 -3.4263821,-3.4263822 z" transform="scale(0.6,0.6)" style="fill-rule:evenodd;stroke:#000000;stroke-width:0.74587913pt;marker-start:none" id="path3209" inkscape:connector-curvature="0"/>
    </marker>
    <marker refX="0" refY="0" orient="auto" style="overflow:visible" id="TriangleInL">
      <path d="m 5.77,0 -8.65,5 0,-10 8.65,5 z" transform="scale(-0.8,-0.8)" style="fill-rule:evenodd;stroke:#000000;stroke-width:1pt;marker-start:none" id="path3287" inkscape:connector-curvature="0"/>
    </marker>
    <marker refX="0" refY="0" orient="auto" style="overflow:visible" id="Dot_l">
      <path d="m -2.5,-1 c 0,2.76 -2.24,5 -5,5 -2.76,0 -5,-2.24 -5,-5 0,-2.76 2.24,-5 5,-5 2.76,0 5,2.24 5,5 z" transform="matrix(0.8,0,0,0.8,5.700394,0.8)" style="fill-rule:evenodd;stroke:#000000;stroke-width:1pt;marker-start:none;marker-end:none" id="path3314" inkscape:connector-curvature="0"/>
    </marker>
    <marker refX="0" refY="0" orient="auto" style="overflow:visible" id="Arrow1Send">
      <path d="M 0,0 5,-5 -12.5,0 5,5 0,0 z" transform="scale(-0.2,-0.2)" style="fill-rule:evenodd;stroke:#000000;stroke-width:1pt;marker-start:none" id="path3364" inkscape:connector-curvature="0"/>
    </marker>
    <marker refX="0" refY="0" orient="auto" style="overflow:visible" id="Arrow2Lend">
      <path d="M 8.7185878,4.0337352 -2.2072895,0.01601326 8.7185884,-4.0017078 c -1.7454984,2.3720609 -1.7354408,5.6174519 -6e-7,8.035443 z" transform="matrix(-1.1,0,0,-1.1,5.5,0)" style="font-size:12px;fill-rule:evenodd;stroke-width:0.625;stroke-linejoin:round" id="path3358" inkscape:connector-curvature="0"/>
    </marker>
    <marker refX="0" refY="0" orient="auto" style="overflow:visible" id="TriangleOutL">
      <path d="m 5.77,0 -8.65,5 0,-10 8.65,5 z" transform="scale(0.8,0.8)" style="fill-rule:evenodd;stroke:#000000;stroke-width:1pt;marker-start:none" id="path3278" inkscape:connector-curvature="0"/>
    </marker>
    <marker refX="0" refY="0" orient="auto" style="overflow:visible" id="SquareL">
      <path d="M -5,-5 -5,5 5,5 5,-5 -5,-5 z" transform="scale(0.8,0.8)" style="fill-rule:evenodd;stroke:#000000;stroke-width:1pt;marker-start:none" id="path3305" inkscape:connector-curvature="0"/>
    </marker>
    <marker refX="0" refY="0" orient="auto" style="overflow:visible" id="Tail">
      <g transform="scale(-1.2,-1.2)" id="g3331">
        <path d="M -3.8048674,-3.9585227 0.54352094,-6.8114835e-4" style="fill:none;stroke:#000000;stroke-width:0.80000001;stroke-linecap:round;marker-start:none;marker-end:none" id="path3333" inkscape:connector-curvature="0"/>
        <path d="M -1.2866832,-3.9585227 3.0617053,-6.8114835e-4" style="fill:none;stroke:#000000;stroke-width:0.80000001;stroke-linecap:round;marker-start:none;marker-end:none" id="path3335" inkscape:connector-curvature="0"/>
        <path d="M 1.3053582,-3.9585227 5.6537466,-6.8114835e-4" style="fill:none;stroke:#000000;stroke-width:0.80000001;stroke-linecap:round;marker-start:none;marker-end:none" id="path3337" inkscape:connector-curvature="0"/>
        <path d="M -3.8048674,4.1775838 0.54352094,0.21974226" style="fill:none;stroke:#000000;stroke-width:0.80000001;stroke-linecap:round;marker-start:none;marker-end:none" id="path3339" inkscape:connector-curvature="0"/>
        <path d="M -1.2866832,4.1775838 3.0617053,0.21974226" style="fill:none;stroke:#000000;stroke-width:0.80000001;stroke-linecap:round;marker-start:none;marker-end:none" id="path3341" inkscape:connector-curvature="0"/>
        <path d="M 1.3053582,4.1775838 5.6537466,0.21974226" style="fill:none;stroke:#000000;stroke-width:0.80000001;stroke-linecap:round;marker-start:none;marker-end:none" id="path3343" inkscape:connector-curvature="0"/>
      </g>
    </marker>
    <marker refX="0" refY="0" orient="auto" style="overflow:visible" id="Arrow2Lstart">
      <path d="M 8.7185878,4.0337352 -2.2072895,0.01601326 8.7185884,-4.0017078 c -1.7454984,2.3720609 -1.7354408,5.6174519 -6e-7,8.035443 z" transform="matrix(1.1,0,0,1.1,-5.5,0)" style="font-size:12px;fill-rule:evenodd;stroke-width:0.625;stroke-linejoin:round" id="path3361" inkscape:connector-curvature="0"/>
    </marker>
    <marker refX="0" refY="0" orient="auto" style="overflow:visible" id="Arrow1Lstart">
      <path d="M 0,0 5,-5 -12.5,0 5,5 0,0 z" transform="scale(0.8,0.8)" style="fill-rule:evenodd;stroke:#000000;stroke-width:1pt;marker-start:none" id="path3379" inkscape:connector-curvature="0"/>
    </marker>
    <marker refX="0" refY="0" orient="auto" style="overflow:visible" id="Arrow1Lend">
      <path d="M 0,0 5,-5 -12.5,0 5,5 0,0 z" transform="scale(-0.8,-0.8)" style="fill-rule:evenodd;stroke:#000000;stroke-width:1pt;marker-start:none" id="path3376" inkscape:connector-curvature="0"/>
    </marker>
    <marker refX="0" refY="0" orient="auto" style="overflow:visible" id="Arrow2Mstart-1">
      <path inkscape:connector-curvature="0" d="M 8.7185878,4.0337352 -2.2072895,0.01601326 8.7185884,-4.0017078 c -1.7454984,2.3720609 -1.7354408,5.6174519 -6e-7,8.035443 z" transform="matrix(0.6,0,0,0.6,-3,0)" style="font-size:12px;fill:#4040ff;fill-rule:evenodd;stroke-width:0.625;stroke-linejoin:round" id="path3355-7"/>
    </marker>
    <marker refX="0" refY="0" orient="auto" style="overflow:visible" id="marker3475">
      <path inkscape:connector-curvature="0" d="M 8.7185878,4.0337352 -2.2072895,0.01601326 8.7185884,-4.0017078 c -1.7454984,2.3720609 -1.7354408,5.6174519 -6e-7,8.035443 z" transform="matrix(0.6,0,0,0.6,-3,0)" style="font-size:12px;fill:#4040ff;fill-rule:evenodd;stroke-width:0.625;stroke-linejoin:round" id="path3477"/>
    </marker>
    <marker refX="0" refY="0" orient="auto" style="overflow:visible" id="marker11576-8">
      <path d="M 0,0 5,-5 -12.5,0 5,5 0,0 z" transform="scale(-0.4,-0.4)" style="fill-rule:evenodd;stroke:#000000;stroke-width:1pt;marker-start:none" id="path8608-8" inkscape:connector-curvature="0"/>
    </marker>
  </defs>
  <rect width="454.5047" height="18.048552" x="678.03058" y="435.8931" style="opacity:0.5;fill:#c0c0c0;fill-opacity:1;fill-rule:evenodd;stroke:#808080;stroke-width:2.19980764;stroke-linecap:butt;stroke-linejoin:miter;stroke-miterlimit:4;stroke-opacity:1;stroke-dasharray:2.1998076, 4.39961522;stroke-dashoffset:0" id="rect7455"/>
  <text x="633.73218" y="454.33301" transform="scale(1.0010881,0.99891309)" style="font-size:28.82546234px;font-style:normal;font-weight:normal;fill:#000000;fill-opacity:1;stroke:none;font-family:Bitstream Vera Sans" id="text2269" xml:space="preserve"><tspan x="633.73218" y="454.33301" id="tspan2271"/></text>
  <text x="507.79581" y="205.10062" transform="scale(1.0010881,0.99891309)" style="font-size:28.82545471px;font-style:normal;font-weight:normal;fill:#000000;fill-opacity:1;stroke:none;font-family:Bitstream Vera Sans" id="text8958" xml:space="preserve"><tspan x="507.79581" y="205.10062" id="tspan8962">∆t' = 2 D/c</tspan></text>
  <path d="M 575.28956,441.77759 703.03809,290.78773 894.66102,64.302985" style="fill:none;stroke:#4040ff;stroke-width:4;stroke-linecap:butt;stroke-linejoin:miter;stroke-miterlimit:4;stroke-opacity:1;stroke-dasharray:none;marker-start:none;marker-mid:url(#Arrow1Mend)" id="path2566" inkscape:connector-curvature="0"/>
  <text xml:space="preserve" id="text2245" style="font-size:28.82538605px;font-style:normal;font-weight:normal;fill:#000000;fill-opacity:1;stroke:none;font-family:Bitstream Vera Sans" transform="scale(1.0010881,0.99891309)" y="456.03104" x="426.30768"><tspan id="tspan2247" y="456.03104" x="426.30768">A</tspan></text>
  <path d="M 1211.5161,441.8137 1083.7676,290.82384 892.14463,64.339095" style="fill:none;stroke:#4040ff;stroke-width:4;stroke-linecap:butt;stroke-linejoin:miter;stroke-miterlimit:4;stroke-opacity:1;stroke-dasharray:none;marker-start:none;marker-mid:url(#Arrow2Mstart)" id="path6476" inkscape:connector-curvature="0"/>
  <text x="864.85461" y="300.71805" transform="scale(1.0010881,0.99891309)" style="font-size:28.82526207px;font-style:normal;font-weight:normal;fill:#000000;fill-opacity:1;stroke:none;font-family:Bitstream Vera Sans" id="text2321" xml:space="preserve"><tspan x="864.85461" y="300.71805" id="tspan2323">L</tspan></text>
  <path d="m 893.40358,66.384135 0,368.636895" style="fill:none;stroke:#40ff40;stroke-width:4;stroke-linecap:butt;stroke-linejoin:miter;stroke-miterlimit:4;stroke-opacity:1;stroke-dasharray:16, 4;stroke-dashoffset:0" id="path11579" inkscape:connector-curvature="0"/>
  <path d="M 584.11521,433.63965 895.06259,65.414515" style="fill:none;stroke:#40ff40;stroke-width:4.02089643;stroke-linecap:butt;stroke-linejoin:miter;stroke-miterlimit:4;stroke-opacity:1;stroke-dasharray:16.08358492, 4.02089623;stroke-dashoffset:0" id="path18418" inkscape:connector-curvature="0"/>
  <text xml:space="preserve" id="LabelA" style="font-size:28.82532501px;font-style:normal;font-weight:normal;fill:#000000;fill-opacity:1;stroke:none;font-family:Bitstream Vera Sans" transform="scale(1.0010881,0.99891309)" y="66.788872" x="425.90784"><tspan id="tspan2186" y="66.788872" x="425.90784">B</tspan></text>
  <path d="m 582.46174,433.41254 c 311.95859,0 311.95859,0 311.95859,0" style="fill:none;stroke:#40ff40;stroke-width:3.99553132;stroke-linecap:butt;stroke-linejoin:miter;stroke-miterlimit:4;stroke-opacity:1;stroke-dasharray:15.98212571, 3.99553143;stroke-dashoffset:0" id="path12556" inkscape:connector-curvature="0"/>
  <text x="707.20532" y="421.70142" style="font-size:12px;font-style:normal;font-weight:normal;line-height:125%;fill:#000000;fill-opacity:1;stroke:none;font-family:Bitstream Vera Sans" id="text15483" xml:space="preserve" sodipodi:linespacing="125%"><tspan x="707.20532" y="421.70142" style="font-size:28px;font-style:normal;font-variant:normal;font-weight:normal;font-stretch:normal;text-align:start;line-height:125%;writing-mode:lr-tb;text-anchor:start;font-family:Bitstream Vera Sans" id="tspan15485">1/2 v ∆t'</tspan></text>
  <path d="m 876.39286,431.4514 0,-15 15,0" style="fill:none;stroke:#40ff40;stroke-width:2;stroke-linecap:butt;stroke-linejoin:miter;stroke-miterlimit:4;stroke-opacity:1;stroke-dasharray:none;stroke-dashoffset:0" id="path17437" inkscape:connector-curvature="0"/>
  <text x="763.51379" y="257.45874" style="font-size:12px;font-style:normal;font-weight:normal;line-height:125%;fill:#000000;fill-opacity:1;stroke:none;font-family:Bitstream Vera Sans" id="text18414" xml:space="preserve" sodipodi:linespacing="125%"><tspan x="763.51379" y="257.45874" style="font-size:28px;font-style:normal;font-variant:normal;font-weight:normal;font-stretch:normal;text-align:start;line-height:125%;writing-mode:lr-tb;text-anchor:start;font-family:Bitstream Vera Sans" id="tspan18416">D</tspan></text>
  <text x="1009.8401" y="257.45874" style="font-size:12px;font-style:normal;font-weight:normal;line-height:125%;fill:#000000;fill-opacity:1;stroke:none;font-family:Bitstream Vera Sans" id="text20408" xml:space="preserve" sodipodi:linespacing="125%"><tspan x="1009.8401" y="257.45874" style="font-size:28px;font-style:normal;font-variant:normal;font-weight:normal;font-stretch:normal;text-align:start;line-height:125%;writing-mode:lr-tb;text-anchor:start;font-family:Bitstream Vera Sans" id="tspan20410">D</tspan></text>
  <g id="g4467" transform="translate(48.772193,35.622895)">
    <text transform="scale(1.0010878,0.99891339)" x="-16.094957" y="419.64853" style="font-size:28.82546425px;font-style:normal;font-weight:normal;fill:#000000;fill-opacity:1;stroke:none;font-family:Bitstream Vera Sans" id="LabelA-0" xml:space="preserve"><tspan x="-16.094957" y="419.64853" id="tspan2186-9">A</tspan></text>
    <rect width="280.91357" height="19.196096" x="11.424166" y="399.91989" style="fill:#c0c0c0;fill-opacity:1;fill-rule:evenodd;stroke:#808080;stroke-width:1.98540807px;stroke-linecap:butt;stroke-linejoin:miter;stroke-opacity:1" id="rect2243-4"/>
  </g>
  <g id="g4462" transform="translate(48.772193,35.622895)">
    <rect width="280.91357" height="19.196096" x="11.424056" y="11.099292" style="fill:#c0c0c0;fill-opacity:1;fill-rule:evenodd;stroke:#808080;stroke-width:1.98540807px;stroke-linecap:butt;stroke-linejoin:miter;stroke-opacity:1" id="MirrorA-4"/>
    <text transform="scale(1.0010878,0.99891339)" x="-16.094847" y="30.046453" style="font-size:28.82546425px;font-style:normal;font-weight:normal;fill:#000000;fill-opacity:1;stroke:none;font-family:Bitstream Vera Sans" id="text2245-8" xml:space="preserve"><tspan x="-16.094847" y="30.046453" id="tspan2247-8">B</tspan></text>
  </g>
  <text x="375.83951" y="268.11478" transform="scale(1.0010881,0.99891309)" style="font-size:28.82546234px;font-style:normal;font-weight:normal;fill:#000000;fill-opacity:1;stroke:none;font-family:Bitstream Vera Sans" id="text2321-2" xml:space="preserve"><tspan x="375.83951" y="268.11478" id="tspan2323-4">L</tspan></text>
  <g transform="matrix(2.412562,0,0,2.4720388,-131.82009,-942.70811)" id="g8954">
    <path inkscape:connector-curvature="0" d="m 129.35494,556.62809 0,-67.00269 0,-80.40322" style="fill:none;stroke:#4040ff;stroke-width:1.64199996;stroke-linecap:square;stroke-linejoin:miter;stroke-miterlimit:4;stroke-opacity:1;stroke-dasharray:none;marker-mid:url(#Arrow2Mstart);marker-end:none" id="PhotonPathBA"/>
    <path inkscape:connector-curvature="0" d="m 135.35494,409.22218 0,67.00269 0,80.40322" style="fill:none;stroke:#4040ff;stroke-width:1.64199996;stroke-linecap:square;stroke-linejoin:miter;stroke-miterlimit:4;stroke-opacity:1;stroke-dasharray:none;marker-mid:url(#Arrow2Mstart);marker-end:none" id="path8952"/>
  </g>
  <text x="26.377148" y="259.30646" transform="scale(1.0010881,0.99891309)" style="font-size:28.82546234px;font-style:normal;font-weight:normal;fill:#000000;fill-opacity:1;stroke:none;font-family:Bitstream Vera Sans" id="text8958-5" xml:space="preserve"><tspan x="26.377148" y="259.30646" id="tspan8962-5">∆t = 2 L/c</tspan></text>
  <path inkscape:connector-curvature="0" d="m 349.52161,66.705675 9.98421,0 0,368.474475 -9.98421,0" style="fill:none;stroke:#000000;stroke-width:1.28442347px;stroke-linecap:butt;stroke-linejoin:miter;stroke-opacity:1" id="path1538"/>
  <rect style="fill:none;stroke:#c8c8c8;stroke-width:3.00350904000000000;stroke-miterlimit:4;stroke-opacity:1;stroke-dasharray:none;stroke-dashoffset:0" id="rect4440" width="391.88699" height="480.33994" x="11.501755" y="11.501755"/>
  <rect style="fill:none;stroke:#c8c8c8;stroke-width:3.67238234999999990;stroke-miterlimit:4;stroke-opacity:1;stroke-dasharray:none;stroke-dashoffset:0" id="rect4442" width="1000.3523" height="479.60645" x="411.86954" y="11.965378"/>
  <rect id="rect2243-1" style="fill:#c0c0c0;fill-opacity:1;fill-rule:evenodd;stroke:#808080;stroke-width:1.72270131;stroke-linecap:butt;stroke-linejoin:miter;stroke-miterlimit:4;stroke-opacity:1;stroke-dasharray:none" y="436.20599" x="796.35272" height="19.20911" width="208.27559"/>
  <path d="m 675.81861,444.93801 225.83701,0 225.83698,0" style="fill:none;stroke:#404040;stroke-width:3;stroke-linecap:butt;stroke-linejoin:miter;stroke-opacity:1;marker-mid:url(#marker11576);stroke-miterlimit:4;stroke-dasharray:none" id="path10599" inkscape:connector-curvature="0"/>
  <rect id="rect2243" style="fill:#c0c0c0;fill-opacity:1;fill-rule:evenodd;stroke:#808080;stroke-width:1.72270131;stroke-linecap:butt;stroke-linejoin:miter;stroke-miterlimit:4;stroke-opacity:1;stroke-dasharray:none" y="435.5687" x="471.16052" height="19.20911" width="208.27559"/>
  <rect id="rect1552" style="fill:#c0c0c0;fill-opacity:1;fill-rule:evenodd;stroke:#808080;stroke-width:1.72270131;stroke-linecap:butt;stroke-linejoin:miter;stroke-miterlimit:4;stroke-opacity:1;stroke-dasharray:none" transform="scale(-1,1)" y="436.21494" x="-1328.3921" height="19.20911" width="208.27559"/>
  <text xml:space="preserve" id="text1554" style="font-size:28.82534027px;font-style:normal;font-weight:normal;fill:#000000;fill-opacity:1;stroke:none;font-family:Bitstream Vera Sans" transform="scale(1.0010881,0.99891309)" y="456.31992" x="1352.9263"><tspan id="tspan1556" y="456.31992" x="1352.9263">A</tspan></text>
  <text xml:space="preserve" id="LabelA-9" style="font-size:28.82532501px;font-style:normal;font-weight:normal;fill:#000000;fill-opacity:1;stroke:none;font-family:Bitstream Vera Sans" transform="scale(1.0010881,0.99891309)" y="66.502319" x="1360.1628"><tspan id="tspan2186-4" y="66.502319" x="1360.1628">B</tspan></text>
  <rect width="454.5047" height="18.048552" x="676.80945" y="47.097408" style="opacity:0.5;fill:#c0c0c0;fill-opacity:1;fill-rule:evenodd;stroke:#808080;stroke-width:2.19980764;stroke-linecap:butt;stroke-linejoin:miter;stroke-miterlimit:4;stroke-opacity:1;stroke-dasharray:2.1998076, 4.39961522;stroke-dashoffset:0" id="rect7455-2"/>
  <rect id="MirrorA" style="fill:#c0c0c0;fill-opacity:1;fill-rule:evenodd;stroke:#808080;stroke-width:1.72270131;stroke-linecap:butt;stroke-linejoin:miter;stroke-miterlimit:4;stroke-opacity:1;stroke-dasharray:none" y="46.484497" x="796.87946" height="19.20911" width="208.27559"/>
  <path d="m 674.53652,56.101013 225.83701,0 225.83697,0" style="fill:none;stroke:#404040;stroke-width:3;stroke-linecap:butt;stroke-linejoin:miter;stroke-opacity:1;marker-mid:url(#marker11576);stroke-miterlimit:4;stroke-dasharray:none" id="path10599-4" inkscape:connector-curvature="0"/>
  <rect id="MirrorA-40" style="fill:#c0c0c0;fill-opacity:1;fill-rule:evenodd;stroke:#808080;stroke-width:1.72270131;stroke-linecap:butt;stroke-linejoin:miter;stroke-miterlimit:4;stroke-opacity:1;stroke-dasharray:none" y="46.116199" x="1120.123" height="19.20911" width="208.27559"/>
  <rect id="MirrorA-7" style="fill:#c0c0c0;fill-opacity:1;fill-rule:evenodd;stroke:#808080;stroke-width:1.72270131;stroke-linecap:butt;stroke-linejoin:miter;stroke-miterlimit:4;stroke-opacity:1;stroke-dasharray:none" y="46.274174" x="470.55688" height="19.20911" width="208.27559"/>
</svg>